<svg xmlns="http://www.w3.org/2000/svg" viewBox="0 0 400 400" width="400" height="400" role="img"><defs><linearGradient id="g" x1="0" y1="0" x2="1" y2="1"><stop offset="0" stop-color="#959aa1"/><stop offset="1" stop-color="#c0c3c7"/></linearGradient><linearGradient id="h" x1="0" y1="0" x2="0" y2="1"><stop offset="0" stop-color="#b5b8bd"/><stop offset="1" stop-color="#848a92"/></linearGradient></defs><path d="M104 104 h192 a16 16 0 0 1 16 16 v152 a16 16 0 0 1 -16 16 H104 a16 16 0 0 1 -16 -16 V120 a16 16 0 0 1 16 -16 z" fill="url(#g)"/><rect x="112" y="122" width="176" height="54" rx="9" fill="#0d1118" opacity=".78"/><rect x="126" y="192" width="66" height="36" rx="9" fill="#0d1118" opacity=".6"/><rect x="126" y="238" width="122" height="12" rx="6" fill="#c0c3c7"/><rect x="216" y="192" width="72" height="11" rx="5.5" fill="#c0c3c7"/><rect x="128" y="264" width="144" height="12" rx="6" fill="#0d1118" opacity=".42"/></svg>