<svg xmlns="http://www.w3.org/2000/svg" viewBox="0 0 400 400" width="400" height="400" role="img"><defs><linearGradient id="g" x1="0" y1="0" x2="1" y2="1"><stop offset="0" stop-color="#a58638"/><stop offset="1" stop-color="#caad64"/></linearGradient><linearGradient id="h" x1="0" y1="0" x2="0" y2="1"><stop offset="0" stop-color="#c5a554"/><stop offset="1" stop-color="#8e7330"/></linearGradient></defs><rect x="160" y="52" width="80" height="48" rx="11" fill="#caad64"/><rect x="172" y="94" width="56" height="22" rx="6" fill="#caad64" opacity=".85"/><path d="M126 116 h148 a16 16 0 0 1 16 16 v152 a22 22 0 0 1 -22 22 H132 a22 22 0 0 1 -22 -22 V132 a16 16 0 0 1 16 -16 z" fill="url(#g)"/><rect x="134" y="132" width="132" height="150" rx="10" fill="url(#h)" opacity=".35"/><rect x="150" y="170" width="100" height="86" rx="6" fill="#ffffff" opacity=".16"/><path d="M200 116 v174" stroke="#ffffff" stroke-opacity=".14" stroke-width="10"/></svg>